<svg width="112" height="60" viewBox="0 0 112 60" fill="none" xmlns="http://www.w3.org/2000/svg">
<g id="65c1ce60f5c5964e2189ff6b_Typeform-2.svg">
<path id="Vector" d="M80.1914 35.7439H74.7586L76.9881 32.8082H70.9521L68.8014 35.6349C67.9973 36.7583 67.9194 37.8921 67.9194 38.6789V39.1237C67.9194 39.6378 68.2379 39.9174 68.7105 39.9174H80.1914C80.6544 39.9174 80.9669 39.662 80.9669 39.1393V36.5247C80.9669 35.9984 80.6544 35.7439 80.1914 35.7439ZM49.2644 25.3727C49.1779 24.8811 48.8447 24.6387 48.4111 24.6387H46.8757C45.278 24.6387 43.868 25.486 43.0779 26.7661C43.0779 26.7661 41.6126 29.1091 39.9707 31.7461H50.3948L49.2644 25.3727ZM66.4342 25.4168C66.4342 24.894 66.1227 24.6387 65.6562 24.6387H62.5308C62.0678 24.6387 61.7553 24.894 61.7553 25.4168V31.3403L58.7928 26.0149C58.2007 25.0334 57.2037 24.6604 56.0405 24.6387H53.7304C53.2717 24.6387 52.9584 24.894 52.9584 25.4168V31.7496H56.841L57.4382 32.8082H52.9584V39.1393C52.9584 39.662 53.2717 39.9217 53.7304 39.9217H56.8635C57.3291 39.9217 57.6373 39.662 57.6373 39.1393L57.6355 33.1786L60.6259 38.5473C61.2118 39.5236 62.2123 39.8967 63.3677 39.9217H65.6562C66.1227 39.9217 66.4342 39.662 66.4342 39.1393V32.8082H62.5793L61.9838 31.7496H66.4342V25.4168ZM50.58 32.8082H45.432C45.5635 33.5282 46.513 38.8823 46.5693 39.1938C46.6567 39.6759 46.957 39.9217 47.3975 39.9217H50.9392C51.2637 39.9217 51.4273 39.8196 51.5797 39.6344C51.6836 39.5054 51.7268 39.3098 51.6783 39.0233L50.58 32.8082ZM35.4658 38.9636C35.3256 39.2033 35.3256 39.4552 35.4112 39.6187C35.5099 39.81 35.7297 39.9217 35.9669 39.9217H39.6453C40.1091 39.9217 40.5238 39.6716 40.7548 39.2977L44.814 32.8082H39.3077C37.4175 35.8383 35.5133 38.8935 35.4658 38.9636ZM68.8135 28.807H73.9892L71.7571 31.7461H77.7914L79.9923 28.8511C80.6718 27.9562 80.8292 27.1548 80.8292 26.4459V25.4376C80.8292 24.9208 80.5168 24.6387 80.0408 24.6387H68.8135C68.3504 24.6387 68.0406 24.894 68.0406 25.4168V28.0315C68.0406 28.5525 68.3504 28.807 68.8135 28.807Z" fill="#636166"/>
<path id="Vector_2" d="M94.5206 24.4289C95.5774 24.4289 96.7804 25.3463 96.7804 26.6134C96.7804 27.3274 96.5527 27.8788 96.2179 28.3825C96.0032 28.7035 95.8396 29.0731 95.7721 29.3406C95.6994 29.6426 95.5401 30.3739 96.4342 30.3861C97.0159 30.4007 98.4474 29.8945 99.6037 28.5001C100.494 27.3802 101.022 25.9599 101.022 24.4107C101.022 20.7903 98.115 17.8545 94.5206 17.8545C90.9253 17.8545 88.0128 20.7903 88.0128 24.4107C88.0128 25.9599 88.5409 27.3802 89.4315 28.5001C90.5895 29.8945 92.0201 30.4007 92.6009 30.3861C93.495 30.3739 93.3331 29.6426 93.2639 29.3406C93.1981 29.0731 93.0337 28.7035 92.8173 28.3825C92.4832 27.8788 92.2548 27.3274 92.2548 26.6134C92.2574 25.3463 93.4587 24.4289 94.5206 24.4289ZM106.022 31.0551C105.755 30.8344 105.288 30.5125 104.328 30.3644C102.996 30.1654 101.807 30.4778 101.092 30.7616C100.151 31.1339 98.9917 31.9803 98.1911 33.0829C97.3464 34.2479 96.9093 36.0067 97.3283 37.8398C97.4468 38.3556 97.575 38.6465 97.7662 39.0082C98.0164 39.4998 98.6758 40.1862 99.2532 40.3099C99.7093 40.4043 100.066 40.142 100.241 39.9438C101.404 38.5963 105.812 33.3781 106.29 32.7117C106.759 32.0496 106.453 31.4134 106.022 31.0551ZM87.9471 30.7616C87.2314 30.4778 86.0439 30.1654 84.7119 30.3644C83.752 30.5125 83.2804 30.8344 83.0172 31.0551C82.5862 31.4134 82.2772 32.0496 82.7489 32.7117C83.2241 33.3781 87.6312 38.5963 88.7944 39.9438C88.9693 40.142 89.3259 40.4043 89.7829 40.3099C90.3637 40.1862 91.0205 39.4998 91.2697 39.0082C91.4637 38.6465 91.5891 38.3556 91.7111 37.8398C92.1292 36.0067 91.6852 34.2479 90.8483 33.0829C90.0468 31.9803 88.8862 31.1339 87.9471 30.7616Z" fill="#636166"/>
</g>
</svg>
