<svg width="80" height="60" viewBox="0 0 80 60" fill="none" xmlns="http://www.w3.org/2000/svg">
<g id="65c1ce3b0ff5a92d6eeea925_Frame%201086586-1.svg">
<path id="Vector" d="M54.8486 17.4219V29.0601L54.7001 29.1827L54.5516 29.3054L54.4093 29.4341L54.2732 29.5629L54.1433 29.6917L54.0133 29.8266L53.8896 29.9615L53.7659 30.0964V17.4219H40.755V28.0177H39.6785V17.4219H26.6676V28.0361H25.591V17.4219H12.5801V29.52L9.25781 40.4898H12.178L13.6443 35.6334H14.065L16.4902 40.4898H20.0167L17.6657 35.6334H22.9988L21.5201 40.4898H24.7063L26.1664 35.6457H26.8717V35.6334H27.874H27.9544H33.9742L32.5636 40.4775H35.7808L37.148 35.6334H38.5958L38.6329 40.4775H41.3303L44.4299 35.6334H46.4592L45.4074 40.4775H48.5751L49.6083 35.6334H51.4396L51.4272 35.9093L51.4338 36.1914L51.4461 36.4612L51.4709 36.731L51.4894 36.8597L51.508 36.9885L51.5327 37.1173L51.5574 37.246L51.5883 37.3748L51.6192 37.4974L51.6563 37.6201L51.6934 37.7427L51.7368 37.8654L51.7801 37.9819L51.8296 38.0984L51.8791 38.2087L51.9348 38.3252L51.9905 38.4356L52.0524 38.5399L52.1143 38.6502L52.1824 38.7545L52.2566 38.8526L52.3309 38.9568L52.4113 39.0488L52.4917 39.1469L52.5721 39.2389L52.6649 39.3309L52.7577 39.4167L52.8753 39.5148L52.9928 39.6129L53.1166 39.7049L53.2465 39.7907L53.3764 39.8766L53.5064 39.9563L53.6425 40.0237L53.7848 40.0973L53.9209 40.1586L54.0632 40.2199L54.2055 40.2751L54.3539 40.3303L54.5024 40.3794L54.6509 40.4223L54.7994 40.4652L54.9479 40.502L55.2448 40.5695L55.548 40.6185L55.845 40.6615L56.1419 40.6983L56.4327 40.7228L56.7173 40.7351L56.9957 40.7473H57.2617L57.6206 40.7415L57.9794 40.7357L58.3445 40.7173L58.7095 40.6989L59.0745 40.6682L59.4395 40.6375L59.8045 40.6007L60.1696 40.5578L60.5408 40.5087L60.912 40.4535L61.2832 40.3922L61.6544 40.3309L62.0256 40.2635L62.3968 40.1899L62.768 40.1163L63.1454 40.0305L64.2467 35.634H67.8598V17.4224L54.8486 17.4219ZM13.7866 35.1796L13.8051 35.1122L13.8485 35.1796H13.7866ZM25.1208 28.6554L24.9352 29.2747L23.2029 34.9773L23.1349 35.1796H17.443L17.0037 34.2476L23.1349 28.0361H19.1938L14.3991 33.1561L15.9519 28.0361H13.0441V17.8818H25.1208V28.6554ZM28.4803 33.475L28.3875 33.4808L28.3009 33.4866L28.2081 33.4924H28.1091H27.9792H27.8678L27.7626 33.4983H27.6636L26.8903 33.4924L27.2491 32.1802L27.4162 31.5303L27.8245 30.0034H27.9544H28.0905L28.2204 29.9976H28.3442H28.9443L29.3093 30.0034L29.6434 30.0157L29.7919 30.0215L29.9342 30.0338L30.0703 30.0522L30.194 30.0706L30.3054 30.089L30.4106 30.1197L30.5096 30.1504L30.5962 30.1872L30.6704 30.224L30.7385 30.2731L30.8004 30.3222L30.8499 30.3835L30.8808 30.4326L30.9055 30.4817L30.9302 30.5369L30.9488 30.5982L30.9611 30.6656L30.9677 30.7331V30.8066V30.8863L30.9611 30.9722L30.9553 31.058L30.9368 31.1561L30.9182 31.2543L30.8625 31.4627L30.7944 31.6957L30.7264 31.892L30.6521 32.0821L30.5717 32.2599L30.4851 32.4254L30.4417 32.499L30.3984 32.5726L30.3489 32.6462L30.2931 32.7136L30.2374 32.781L30.1817 32.8423L30.1198 32.9036L30.0579 32.9588L29.9899 33.0079L29.9218 33.0631L29.8475 33.106L29.7671 33.1551L29.6867 33.198L29.6001 33.2348L29.5135 33.2716L29.4207 33.3023L29.3217 33.3391L29.2165 33.3636L29.1051 33.3882L28.9938 33.4127L28.87 33.4311L28.7463 33.4495L28.6164 33.4618L28.4803 33.475ZM37.278 35.1796L38.5463 30.7034L38.5958 35.1796H37.278ZM39.2083 28.0177H36.1891L34.1103 35.1796H30.9055L31.054 35.1183L31.2025 35.057L31.3448 34.9957L31.4871 34.9283L31.6232 34.8609L31.7531 34.7812L31.8831 34.7076L32.0068 34.6279L32.1305 34.542L32.2481 34.4562L32.3594 34.3703L32.4708 34.2722L32.576 34.1802L32.675 34.076L32.774 33.9779L32.8668 33.8675L32.9596 33.7633L33.0462 33.6468L33.1266 33.5364L33.207 33.4138L33.2813 33.2911L33.3493 33.1685L33.4174 33.0397L33.4793 32.9048L33.5412 32.7699L33.5969 32.635L33.6464 32.494L33.6959 32.3468L33.733 32.1997L33.7763 32.0525L33.8072 31.8931L33.8382 31.7398L33.8815 31.4945L33.9186 31.2615L33.9433 31.0407L33.9619 30.8323L33.9684 30.6238L33.9619 30.4337L33.956 30.2436L33.9313 30.0658L33.9066 29.9002L33.8632 29.7347L33.8199 29.5814L33.758 29.4342L33.6899 29.2932L33.6157 29.1521L33.5291 29.0234L33.4301 28.9007L33.3497 28.8149L33.2692 28.729L33.1826 28.6555L33.0898 28.588L32.9908 28.5206L32.8918 28.4593L32.7867 28.4041L32.6815 28.355L32.5701 28.3059L32.4588 28.2691L32.3412 28.2323L32.2237 28.1955L32.0999 28.1648L31.9762 28.1403L31.8524 28.1158L31.7225 28.0974L31.4565 28.0606L31.1905 28.0422L30.9182 28.0238L30.6398 28.018H30.083H29.5324H29.3592H29.0498H28.6662H28.2393H27.8248H27.4722H27.2247H27.1319V17.8821H39.2086L39.2083 28.0177ZM46.5458 35.1796H44.7331L47.48 30.8874L46.5458 35.1796ZM53.2957 28.22L53.2891 30.7034L53.1345 30.918L52.9922 31.1388L52.8499 31.3595L52.7199 31.5803L52.5962 31.801L52.4725 32.0279L52.3673 32.2486L52.2621 32.4694L52.1631 32.684L52.0765 32.9047L51.9899 33.1193L51.9156 33.3278L51.8476 33.5363L51.7857 33.7387L51.73 33.9349L51.6804 34.1311L51.6495 34.2599L51.6186 34.3948L51.5877 34.5235L51.563 34.6584L51.5383 34.7872L51.5197 34.916L51.5012 35.0447L51.4888 35.1796H49.7132L51.229 28.0361L46.1186 28.0302L41.5466 35.18H41.2125V17.8821H53.2954L53.2957 28.22ZM60.262 38.1045L60.0084 38.1474L59.7485 38.1842L59.4887 38.221L59.235 38.2517L58.9814 38.2762L58.7277 38.2946L58.4802 38.3069H58.2328H58.0719L57.911 38.3011L57.7564 38.2888L57.6017 38.2704L57.4532 38.2459L57.3109 38.2214L57.1686 38.1907L57.0325 38.1539L56.9026 38.111L56.7727 38.0681L56.6489 38.0129L56.5314 37.9577L56.4138 37.8903L56.3025 37.8228L56.1973 37.7493L56.0983 37.6757L55.9993 37.5898L55.9127 37.4979L55.8261 37.4059L55.7457 37.3016L55.6714 37.1974L55.6033 37.0809L55.5414 36.9644L55.4796 36.8417L55.43 36.713L55.3867 36.572L55.3496 36.4309L55.3125 36.2838L55.2878 36.1305L55.2692 35.971L55.2569 35.8055L55.2503 35.6338H60.8803L60.262 38.1045ZM67.4016 35.1796H64.3577L64.8589 33.1807H58.7586L58.2575 35.1796H55.3064V34.7688L55.3435 34.5971L55.3744 34.4254L55.4115 34.2415L55.4486 34.0575L55.5043 33.8552L55.56 33.6528L55.6219 33.4505L55.69 33.2542L55.7642 33.058L55.8446 32.8618L55.9312 32.6717L56.0179 32.4816L56.1169 32.2916L56.2158 32.1137L56.321 31.9298L56.4386 31.7581L56.5561 31.5864L56.6737 31.4208L56.8036 31.2614L56.9397 31.1081L57.082 30.9609L57.2243 30.826L57.379 30.6911L57.5336 30.5624L57.6945 30.4459L57.8677 30.3355L58.041 30.2374L58.2204 30.1454L58.406 30.0596L58.5978 29.986L58.7957 29.9247L58.9999 29.8756L59.2103 29.8327L59.4268 29.802L59.6495 29.7836L59.8784 29.7778L60.0579 29.7836L60.2373 29.7959L60.4167 29.8204L60.5899 29.8572L60.6765 29.8817L60.757 29.9062L60.8374 29.9307L60.9116 29.9675L60.9859 29.9982L61.0601 30.0411L61.1282 30.084L61.1963 30.1269L61.2582 30.1821L61.3201 30.2373L61.3758 30.2925L61.4315 30.36L61.481 30.4213L61.5244 30.4948L61.5614 30.5746L61.5985 30.6543L61.6294 30.7401L61.6542 30.8321L61.6727 30.9241L61.6913 31.0283L61.6978 31.1326V31.2429V31.3594L61.6854 31.4821H65.3233L65.379 31.2307L65.4285 30.9425L65.4533 30.7892L65.4656 30.6236L65.478 30.4581V30.2864L65.4722 30.1085L65.4536 29.9246L65.4351 29.8387L65.4227 29.7468L65.398 29.6548L65.3733 29.5628L65.3424 29.4647L65.3114 29.3727L65.2744 29.2807L65.231 29.1888L65.1877 29.0968L65.132 29.0048L65.0762 28.9128L65.0144 28.8209L64.9401 28.7228L64.8597 28.6308L64.7793 28.5388L64.6926 28.453L64.5998 28.3671L64.5008 28.2874L64.4019 28.2138L64.2967 28.1402L64.1853 28.0666L64.074 28.0053L63.9564 27.944L63.8327 27.8827L63.7089 27.8275L63.579 27.7723L63.4429 27.7232L63.3068 27.6741L63.1707 27.6312L63.0222 27.5944L62.8799 27.5576L62.7252 27.5208L62.5706 27.4901L62.4159 27.4594L62.255 27.4349L62.088 27.4165L61.7477 27.3797L61.4012 27.349L61.0362 27.3367L60.665 27.3309L60.3866 27.3367L60.0958 27.3426L59.7927 27.361L59.4771 27.3855L59.1492 27.4223L58.8152 27.4652L58.4749 27.5204L58.1284 27.594L57.9552 27.6308L57.7758 27.6737L57.6025 27.7228L57.4231 27.7719L57.2437 27.8271L57.0643 27.8884L56.8849 27.9497L56.7116 28.0171L56.5322 28.0907L56.3528 28.1704L56.1796 28.2501L56.0001 28.336L55.8269 28.4279L55.6537 28.526L55.4805 28.6241L55.3072 28.7345V17.8812H67.4025V35.1791L67.4016 35.1796Z" fill="#7D7A80"/>
</g>
</svg>
