<svg width="56" height="91" viewBox="0 0 56 91" fill="none" xmlns="http://www.w3.org/2000/svg">
<g id="Group">
<path id="Vector" d="M24.1953 31.9701C28.1445 27.8315 31.2723 22.492 33.326 16.426C34.9057 11.7501 37.1804 3.12494 37.1804 1.76639C37.1804 -0.350392 40.9717 -1.2034 40.9717 2.90381C40.9717 5.02061 42.3618 17.3106 46.5954 24.672C50.6078 31.6858 52.1559 33.487 54.9678 34.6875C56.5791 35.351 56.3264 35.8562 54.0516 36.646C48.4279 38.6049 45.9003 43.3124 40.8137 61.2577C37.8439 71.6838 36.0114 71.3678 34.4633 60.152C32.9468 48.9993 27.3231 36.3301 23.3107 34.94C21.9837 34.4977 22.0785 34.2133 24.1953 31.9701ZM37.4648 52.1271L38.0651 54.9705C38.3178 54.3071 41.6036 40.3741 47.3852 36.646C48.9649 35.635 49.2493 35.2243 48.3331 35.2243C45.3948 35.2243 40.8137 27.4207 39.4236 19.9013C38.7601 16.4576 38.6653 16.3312 37.8439 18.4796C36.1378 23.0607 33.326 27.389 29.4715 31.4014L26.944 34.0557C27.2915 34.4664 34.4002 37.2463 37.4648 52.1271Z" fill="#FFBD13" fill-opacity="0.8"/>
<path id="Vector_2" d="M1.41566 69.1878C6.37591 65.1438 10.0092 57.9723 10.0092 52.0642C10.0092 49.4735 13.453 46.5034 14.7483 53.8648C16.328 62.9954 17.3706 65.4913 20.9407 69.0615C23.879 71.9681 23.9106 71.7785 20.2141 72.7895C16.7703 73.7374 14.2112 78.2872 12.5367 86.47C11.4941 91.5567 7.73445 91.7775 7.57648 86.5961C7.35532 79.2979 5.68084 75.2223 1.88957 72.8211C-0.511576 71.273 -0.574764 70.7991 1.41566 69.1878ZM5.20693 70.8626C6.31272 71.2418 9.31415 73.8637 10.0092 75.0011C10.957 76.6124 10.9254 76.6124 12.0312 74.8432C12.979 73.3266 15.2222 71.6522 16.7071 71.3678C17.8445 71.1151 17.8129 71.0522 15.9805 69.2513C15.0958 68.3983 13.8637 66.6603 13.2318 65.3966C11.8101 62.6479 11.9996 62.6798 10.6411 64.8598C9.59849 66.5027 7.89242 68.3032 5.74403 70.0093C5.14374 70.42 4.95418 70.7678 5.20693 70.8626Z" fill="#FFBD13" fill-opacity="0.8"/>
</g>
</svg>
